<svg xmlns="http://www.w3.org/2000/svg" viewBox="0 0 512 512">
  <defs>
    <linearGradient id="pg" gradientUnits="userSpaceOnUse" x1="106" y1="116" x2="406" y2="396">
      <stop offset="0" stop-color="#a78bfa"/>
      <stop offset="0.3" stop-color="#60a5fa"/>
      <stop offset="0.62" stop-color="#4ade80"/>
      <stop offset="1" stop-color="#15803d"/>
    </linearGradient>
    <linearGradient id="gloss" gradientUnits="userSpaceOnUse" x1="256" y1="116" x2="256" y2="396">
      <stop offset="0" stop-color="#ffffff" stop-opacity="0.25"/>
      <stop offset="0.4" stop-color="#ffffff" stop-opacity="0.05"/>
      <stop offset="0.55" stop-color="#ffffff" stop-opacity="0"/>
    </linearGradient>
    <radialGradient id="glowTL" gradientUnits="userSpaceOnUse" cx="120" cy="105" r="320">
      <stop offset="0" stop-color="#a78bfa" stop-opacity="0.30"/>
      <stop offset="1" stop-color="#a78bfa" stop-opacity="0"/>
    </radialGradient>
    <radialGradient id="glowBR" gradientUnits="userSpaceOnUse" cx="405" cy="415" r="320">
      <stop offset="0" stop-color="#4ade80" stop-opacity="0.16"/>
      <stop offset="1" stop-color="#4ade80" stop-opacity="0"/>
    </radialGradient>
  </defs>
  <rect x="22" y="22" width="468" height="468" rx="104" fill="#0c1018" stroke="#253045" stroke-width="12"/>
  <rect x="22" y="22" width="468" height="468" rx="104" fill="url(#glowTL)"/>
  <rect x="22" y="22" width="468" height="468" rx="104" fill="url(#glowBR)"/>
  <g fill="url(#pg)">
    <g id="mark">
      <rect x="106" y="116" width="80" height="80" rx="14">
        <animate attributeName="opacity" values="1;0.3" calcMode="discrete" dur="1.4s" repeatCount="indefinite"/>
      </rect>
      <rect x="106" y="220" width="80" height="176" rx="12"/>
      <path d="M226 116 L306 116 C378 116 406 178 406 256 C406 334 378 396 306 396 L226 396 Z"/>
    </g>
  </g>
  <g fill="url(#gloss)"><use href="#mark"/></g>
  <g transform="translate(236.6 167.2) scale(7.4)" fill="none" stroke="#0c1018" stroke-width="3.8" stroke-linecap="round" stroke-linejoin="round">
    <line x1="11" y1="1" x2="11" y2="23"/>
    <path d="M16 5H8.5a3.5 3.5 0 0 0 0 7h5a3.5 3.5 0 0 1 0 7H5"/>
  </g>
</svg>